<?xml version="1.0" encoding="UTF-8"?>
<!DOCTYPE svg PUBLIC "-//W3C//DTD SVG 1.1//EN" "http://www.w3.org/Graphics/SVG/1.1/DTD/svg11.dtd">
<!-- Creator: CorelDRAW -->
<svg xmlns="http://www.w3.org/2000/svg" xml:space="preserve" width="700px" height="172px" style="shape-rendering:geometricPrecision; text-rendering:geometricPrecision; image-rendering:optimizeQuality; fill-rule:evenodd; clip-rule:evenodd"
viewBox="0 0 604.152 149.825"
 xmlns:xlink="http://www.w3.org/1999/xlink">
 <defs>
  <style type="text/css">
   <![CDATA[   
    .fil1 {fill:gray;fill-rule:nonzero}
   ]]>
  </style>
 </defs>
 <g id="Capa_x0020_1">
  <metadata id="CorelCorpID_0Corel-Layer"/> 
  <path class="fil1" d="M73.7916 97.9983l9.01895 -52.6292 31.9819 0 -1.5079 8.79846 -23.0859 0 -2.04542 11.9474 22.3259 0 -1.5079 8.79744 -22.3259 0 -2.47523 14.2875 24.8011 0 -1.4703 8.79846 -33.7093 0zm40.0569 0l9.01895 -52.6292 30.2291 0 -1.50688 8.79846 -21.3331 0 -2.18158 12.6332 20.8921 0 -1.50688 8.79846 -20.8921 0 -3.84799 22.399 -8.87162 0zm36.9812 0l9.01895 -52.6292 31.9819 0 -1.5079 8.79846 -23.0859 0 -2.04542 11.9474 22.3259 0 -1.5079 8.79744 -22.3259 0 -2.47523 14.2875 24.8011 0 -1.4703 8.79846 -33.7093 0zm74.7102 0l-8.29548 0 -11.6659 -35.3635 -6.04075 35.3635 -8.28329 0 9.00676 -52.6292 8.29548 0 11.6649 35.2172 6.02957 -35.2172 8.29548 0 -9.00676 52.6292zm9.15409 0l9.00574 -52.6292 11.6293 0c4.05528,0 6.78758,0.171722 8.22131,0.502972 2.42646,0.600518 4.53386,1.78835 6.33542,3.55332 1.81375,1.77615 3.24747,4.14165 4.30117,7.09445 1.04151,2.9528 1.56887,6.50714 1.56887,10.6366 0,4.36214 -0.539552,8.38084 -1.60545,12.0815 -1.07809,3.70066 -2.59818,6.93593 -4.54605,9.69263 -1.94889,2.7699 -3.96992,4.77874 -6.05396,6.02855 -2.08302,1.262 -4.25138,2.12061 -6.53051,2.57379 -1.4825,0.305848 -3.84799,0.465376 -7.10766,0.465376l-15.2182 0zm10.3419 -8.46721l4.48407 0c3.27186,0 5.57537,-0.232688 6.88716,-0.685871 1.72738,-0.576132 3.34502,-1.75278 4.8519,-3.54113 1.5079,-1.77717 2.80648,-4.2524 3.90896,-7.4257 1.10349,-3.17431 1.65422,-6.83839 1.65422,-11.0044 0,-3.44256 -0.453183,-6.15049 -1.34736,-8.11157 -0.895189,-1.96007 -2.09521,-3.29625 -3.60311,-3.98212 -1.07809,-0.478586 -2.965,-0.723467 -5.63634,-0.723467l-5.13438 0 -6.06513 35.4743zm33.0234 8.46721l9.01895 -52.6292 31.9819 0 -1.5079 8.79846 -23.0859 0 -2.04542 11.9474 22.3259 0 -1.5079 8.79744 -22.3259 0 -2.47523 14.2875 24.8011 0 -1.4703 8.79846 -33.7093 0zm49.2476 0l-8.85942 0 9.00574 -52.6292 19.2146 0c3.54113,0 6.17487,0.465376 7.92765,1.39714 1.75177,0.942946 3.1611,2.45085 4.25138,4.52167 1.0913,2.08302 1.62983,4.71778 1.62983,7.90327 0,4.669 -1.13905,8.40624 -3.41818,11.2239 -2.29132,2.80648 -5.57537,4.54605 -9.86435,5.22075 1.20104,1.31078 2.37769,3.18549 3.52893,5.59976 1.91129,4.06849 4.01971,9.65605 6.31103,16.7627l-9.54631 0c-0.379007,-1.4825 -1.67861,-5.5144 -3.87136,-12.0947 -1.15226,-3.3816 -2.20596,-5.75827 -3.16212,-7.14322 -0.698064,-0.980542 -1.40832,-1.65422 -2.1196,-2.00986 -0.722451,-0.36783 -1.92349,-0.538536 -3.62648,-0.538536l-3.66408 0 -3.73724 21.7863zm5.09678 -29.6906l4.70558 0c4.4607,0 7.46228,-0.281461 9.03114,-0.8454 1.56887,-0.563938 2.86745,-1.59325 3.90896,-3.10014 1.04151,-1.50688 1.56785,-3.1733 1.56785,-4.98704 0,-1.98547 -0.661485,-3.44358 -1.97226,-4.34995 -0.77224,-0.576132 -2.45085,-0.857593 -5.02362,-0.857593l-9.7668 0 -2.45085 14.1401z"/>
  <path class="fil1" d="M15.7994 97.9983l11.675 -68.2223 15.0739 0c5.25733,0 8.79947,0.222527 10.6579,0.651323 3.14586,0.778337 5.87715,2.31875 8.21216,4.60601 2.35127,2.30351 4.20972,5.3691 5.57537,9.19778 1.3504,3.82767 2.03323,8.43367 2.03323,13.7865 0,5.65564 -0.69908,10.8652 -2.08098,15.6622 -1.39714,4.79703 -3.36737,8.9905 -5.89239,12.5641 -2.52604,3.5899 -5.14657,6.19519 -7.84738,7.81487 -2.69979,1.63593 -5.51135,2.74856 -8.46619,3.33587 -1.92146,0.397297 -4.98704,0.603567 -9.21201,0.603567l-19.7287 0zm13.4065 -10.976l5.81314 0c4.24122,0 7.22756,-0.301783 8.9275,-0.889092 2.2395,-0.746837 4.33572,-2.27201 6.28969,-4.59076 1.95397,-2.30351 3.63766,-5.51237 5.06732,-9.62557 1.42966,-4.11421 2.14398,-8.86349 2.14398,-14.2641 0,-4.46375 -0.587309,-7.97439 -1.74668,-10.5157 -1.15938,-2.54128 -2.71605,-4.27272 -4.67002,-5.16181 -1.39816,-0.619824 -3.84393,-0.937865 -7.30681,-0.937865l-6.65549 0 -7.86262 45.9849z"/>
  <path class="fil1" d="M402.125 60.4034l24.986 0 -5.01956 29.275c-3.09709,2.47726 -6.814,4.49525 -11.1192,6.01941 -4.32048,1.54143 -8.5932,2.30351 -12.8497,2.30351 -7.38607,0 -12.9462,-2.19174 -16.7109,-6.60773 -4.49525,-5.27359 -6.73475,-12.5804 -6.73475,-21.9204 0,-8.11665 1.54143,-15.5972 4.62226,-22.396 3.08185,-6.814 6.89427,-11.7858 11.4048,-14.9154 4.51151,-3.14485 9.56257,-4.70152 15.1379,-4.70152 6.14744,0 11.23,1.76294 15.2649,5.30509 4.03394,3.5269 6.71849,8.9275 8.05263,16.1866l-10.7057 1.49266c-1.88996,-7.75187 -6.08342,-11.6273 -12.6119,-11.6273 -3.52589,0 -6.7825,1.08012 -9.76884,3.2241 -2.97008,2.16024 -5.4321,5.65564 -7.36981,10.4994 -1.93771,4.84479 -2.90708,10.4842 -2.90708,16.9324 0,5.81415 1.08012,10.0554 3.25662,12.7552 2.17548,2.70081 5.30509,4.0502 9.40304,4.0502 2.28725,0 4.52675,-0.348524 6.68699,-1.03236 2.95483,-0.889092 5.46461,-1.98547 7.5456,-3.30336l1.76294 -10.1346 -14.2803 0 1.95397 -11.4048z"/>
  <path class="fil1" d="M430.404 97.1041l9.00676 -52.6292 8.90819 0 -7.54865 43.8307 21.9712 0 -1.50688 8.79846 -30.8307 0zm64.8336 -11.6283l-17.1305 0 -5.17096 11.6283 -9.1165 0 24.4211 -52.6292 9.82777 0 7.00808 52.6292 -8.40522 0 -1.43372 -11.6283zm-1.11568 -8.76188l-2.47523 -21.1858 -9.52091 21.1858 11.9961 0zm17.7067 3.33283l8.43063 -0.538536c0.122949,2.83087 0.44099,4.79094 0.968348,5.89341 0.527359,1.10349 1.39714,1.97328 2.62257,2.59818 1.22542,0.637098 2.87964,0.956155 4.98704,0.956155 2.73231,0 4.77874,-0.600518 6.16369,-1.80155 1.37174,-1.18884 2.05863,-2.75771 2.05863,-4.69339 0,-1.37276 -0.392217,-2.5362 -1.18884,-3.51674 -0.784433,-0.968348 -2.83087,-2.3157 -6.13931,-4.05629 -4.17822,-2.22933 -6.96032,-3.95773 -8.34426,-5.19535 -1.37276,-1.22542 -2.43865,-2.7445 -3.18651,-4.53386 -0.759031,-1.80054 -1.13905,-3.84697 -1.13905,-6.13829 0,-4.69339 1.38394,-8.44282 4.12945,-11.2371 2.75669,-2.80547 6.50612,-4.20261 11.2727,-4.20261 4.81634,0 8.66331,1.38495 11.543,4.16603 2.87964,2.76889 4.4729,6.69004 4.75436,11.7391l-8.50378 0.465376c-0.428796,-5.19535 -3.03917,-7.79353 -7.83011,-7.79353 -2.36448,0 -4.10507,0.502972 -5.21973,1.49571 -1.11467,0.991719 -1.66641,2.34009 -1.66641,4.06747 0,1.58106 0.526343,2.86745 1.58106,3.84799 1.0283,1.00493 3.11233,2.34009 6.23685,4.0187 4.14165,2.16938 6.89834,3.87238 8.2589,5.07341 1.37174,1.21323 2.41325,2.69573 3.14891,4.4607 0.722451,1.75177 1.09028,3.74943 1.09028,5.96657 0,4.98806 -1.56785,9.04334 -4.70558,12.1922 -3.13672,3.14993 -7.27836,4.71778 -12.4249,4.71778 -3.87136,0 -7.1798,-0.821013 -9.92532,-2.47523 -2.73231,-1.65422 -4.60702,-3.84697 -5.59976,-6.60468 -0.992735,-2.75669 -1.44592,-5.7095 -1.37276,-8.87162zm40.2042 0l8.43063 -0.538536c0.122949,2.83087 0.44099,4.79094 0.968348,5.89341 0.527359,1.10349 1.39714,1.97328 2.62257,2.59818 1.22542,0.637098 2.87964,0.956155 4.98704,0.956155 2.73231,0 4.77874,-0.600518 6.16369,-1.80155 1.37174,-1.18884 2.05863,-2.75771 2.05863,-4.69339 0,-1.37276 -0.392217,-2.5362 -1.18884,-3.51674 -0.784433,-0.968348 -2.83087,-2.3157 -6.13931,-4.05629 -4.17822,-2.22933 -6.96032,-3.95773 -8.34426,-5.19535 -1.37276,-1.22542 -2.43865,-2.7445 -3.18651,-4.53386 -0.759031,-1.80054 -1.13905,-3.84697 -1.13905,-6.13829 0,-4.69339 1.38394,-8.44282 4.12945,-11.2371 2.75669,-2.80547 6.50612,-4.20261 11.2727,-4.20261 4.81634,0 8.66331,1.38495 11.543,4.16603 2.87964,2.76889 4.4729,6.69004 4.75436,11.7391l-8.50378 0.465376c-0.428796,-5.19535 -3.03917,-7.79353 -7.83011,-7.79353 -2.36448,0 -4.10507,0.502972 -5.21973,1.49571 -1.11467,0.991719 -1.66641,2.34009 -1.66641,4.06747 0,1.58106 0.526343,2.86745 1.58106,3.84799 1.0283,1.00493 3.11233,2.34009 6.23685,4.0187 4.14165,2.16938 6.89834,3.87238 8.2589,5.07341 1.37174,1.21323 2.41325,2.69573 3.14891,4.4607 0.722451,1.75177 1.09028,3.74943 1.09028,5.96657 0,4.98806 -1.56785,9.04334 -4.70558,12.1922 -3.13672,3.14993 -7.27836,4.71778 -12.4249,4.71778 -3.87136,0 -7.1798,-0.821013 -9.92532,-2.47523 -2.73231,-1.65422 -4.60702,-3.84697 -5.59976,-6.60468 -0.992735,-2.75669 -1.44592,-5.7095 -1.37276,-8.87162z"/>
 </g>
</svg>
